<?xml version="1.0" encoding="UTF-8"?>
<svg id="Layer_2" data-name="Layer 2" xmlns="http://www.w3.org/2000/svg" width="302.12" height="302.12" viewBox="0 0 302.12 302.12">
  <defs>
    <style>
      .cls-1 {
        fill: #fff;
      }
    </style>
  </defs>
  <g id="Layer_1-2" data-name="Layer 1" transform="translate(56.69 0)">
    <g>
      <path class="cls-1" d="M94.37,302.12C42.33,302.12,0,259.79,0,207.76v-113.39C0,42.33,42.33,0,94.37,0s94.37,42.33,94.37,94.37v113.39c0,52.04-42.33,94.37-94.37,94.37ZM94.37,18.66c-41.75,0-75.71,33.96-75.71,75.71v113.39c0,41.75,33.96,75.71,75.71,75.71s75.71-33.96,75.71-75.71v-113.39c0-41.75-33.96-75.71-75.71-75.71Z"/>
      <path class="cls-1" d="M72.03,82.77c0,18.39,8.77,34.73,22.34,45.09,13.57-10.36,22.34-26.7,22.34-45.09s-8.77-34.73-22.34-45.09c-13.57,10.36-22.34,26.7-22.34,45.09Z"/>
      <path class="cls-1" d="M90.91,243.33v20.94c-1.3-.07-2.58-.19-3.85-.36-14.89-1.85-27.99-9.48-36.97-20.58-7.9-9.74-12.63-22.15-12.63-35.67v-20.93c1.29.07,2.58.19,3.85.36,27.96,3.48,49.6,27.33,49.6,56.24Z"/>
      <path class="cls-1" d="M97.61,243.33v20.94c1.3-.07,2.58-.19,3.85-.36,14.89-1.85,27.99-9.48,36.97-20.58,7.9-9.74,12.63-22.15,12.63-35.67v-20.93c-1.29.07-2.58.19-3.85.36-27.96,3.48-49.6,27.33-49.6,56.24Z"/>
      <path class="cls-1" d="M90.91,171.72v20.94c-1.3-.07-2.58-.19-3.85-.36-14.89-1.85-27.99-9.48-36.97-20.58-7.9-9.74-12.63-22.15-12.63-35.67v-20.93c1.29.07,2.58.19,3.85.36,27.96,3.48,49.6,27.33,49.6,56.24Z"/>
      <path class="cls-1" d="M97.61,171.72v20.94c1.3-.07,2.58-.19,3.85-.36,14.89-1.85,27.99-9.48,36.97-20.58,7.9-9.74,12.63-22.15,12.63-35.67v-20.93c-1.29.07-2.58.19-3.85.36-27.96,3.48-49.6,27.33-49.6,56.24Z"/>
    </g>
  </g>
</svg>