<svg width="873" height="876" viewBox="0 0 873 876" fill="none" xmlns="http://www.w3.org/2000/svg">
<path fill-rule="evenodd" clip-rule="evenodd" d="M400.379 625.746C400.712 625.814 401.045 625.882 401.379 625.948V733.928C401.045 733.888 400.712 733.848 400.379 733.807V625.746ZM473.379 626.071C473.712 626.006 474.046 625.94 474.379 625.873V733.587C474.046 733.63 473.712 733.672 473.379 733.714V626.071Z" fill="black"/>
<path fill-rule="evenodd" clip-rule="evenodd" d="M400.379 625.746C400.712 625.814 401.045 625.882 401.379 625.948V733.928C401.045 733.888 400.712 733.848 400.379 733.807V625.746ZM473.379 626.071C473.712 626.006 474.046 625.94 474.379 625.873V733.587C474.046 733.63 473.712 733.672 473.379 733.714V626.071Z" fill="black"/>
<path d="M352.293 445.651C352.293 492.722 390.58 530.784 437.69 530.784C484.8 530.784 523.086 492.722 523.086 445.651L523.086 258.632C523.086 211.562 484.8 173.5 437.69 173.5C390.58 173.5 352.293 211.562 352.293 258.632V445.651Z" fill="black"/>
<path fill-rule="evenodd" clip-rule="evenodd" d="M873 438C873 679.901 677.572 876 436.5 876C195.428 876 0 679.901 0 438C0 196.099 195.428 0 436.5 0C677.572 0 873 196.099 873 438ZM401.379 733.928V625.948C401.045 625.882 400.712 625.814 400.379 625.746C316.263 608.49 253 534.047 253 444.827H317.427C317.427 511.247 371.27 565.09 437.69 565.09C504.109 565.09 557.953 511.247 557.953 444.827H622.379C622.379 451.358 622.04 457.809 621.379 464.165C612.984 544.852 552.639 610.099 474.379 625.873C474.046 625.94 473.712 626.006 473.379 626.071V733.714C473.712 733.672 474.046 733.63 474.379 733.587C619.906 714.911 733 590.069 733 438C733 272.966 599.8 140 436.5 140C273.2 140 140 272.966 140 438C140 590.681 254.006 715.915 400.379 733.807C400.712 733.848 401.045 733.888 401.379 733.928Z" fill="black"/>
</svg>
